<?xml version="1.0" encoding="utf-8"?>
<!-- Generator: Adobe Illustrator 24.2.1, SVG Export Plug-In . SVG Version: 6.00 Build 0)  -->
<svg version="1.1" id="Layer_1" xmlns="http://www.w3.org/2000/svg" xmlns:xlink="http://www.w3.org/1999/xlink" x="0px" y="0px"
	 viewBox="0 0 71.6 70.1" style="enable-background:new 0 0 71.6 70.1;" xml:space="preserve">
<style type="text/css">
	.st0{fill:#B2997D;}
</style>
<g>
	<g>
		<path class="st0" d="M53.3,65.8c-0.4,0-0.7-0.3-0.7-0.7v-2c0-0.3,0.1-0.5,0.4-0.6c1.5-0.9,2.3-2.9,2.2-6.1V46.3
			c0-0.4-0.1-0.7-0.4-1c-0.3-0.3-0.6-0.4-1-0.4c0,0,0,0,0,0c-0.4,0-0.7,0.1-1,0.4c-0.2,0.2-0.4,0.5-0.4,0.8c0,0.4-0.4,0.6-0.7,0.6
			c-0.4,0-0.8-0.3-0.8-0.7v-1.3c0-0.4-0.1-0.7-0.4-1c-0.3-0.3-0.6-0.4-1-0.4c0,0,0,0,0,0c-0.4,0-0.7,0.1-1,0.4
			c-0.2,0.2-0.4,0.5-0.4,0.8c0,0.4-0.4,0.6-0.7,0.6c-0.4,0-0.8-0.3-0.8-0.7v-1.3c0-0.4-0.1-0.7-0.4-1c-0.3-0.3-0.6-0.4-1-0.4
			c0,0,0,0,0,0c-0.4,0-0.7,0.1-1,0.4c-0.2,0.2-0.4,0.5-0.4,0.8c0,0.4-0.4,0.7-0.7,0.7c-0.4,0-0.7-0.3-0.7-0.7v-6.5
			c0-0.5-0.2-0.9-0.5-1.2c-0.3-0.3-0.7-0.5-1.2-0.5c-0.5,0-0.9,0.2-1.2,0.5c-0.3,0.3-0.5,0.7-0.5,1.2v13.5c0,0.3-0.2,0.6-0.4,0.7
			c-0.3,0.1-0.6,0.1-0.8-0.1l-2-1.8c-0.4-0.3-0.8-0.5-1.3-0.5c-0.5,0-0.8,0.1-1.1,0.5c-0.3,0.3-0.4,0.7-0.4,1.1
			c0,0.5,0.2,0.9,0.6,1.2l0.7,0.6c1.6,1.5,2.9,3.7,3.6,6.5c0.7,2.5,1.7,4,3,4.4c0.3,0.1,0.5,0.4,0.5,0.7v1.9c0,0.4-0.3,0.7-0.7,0.7
			c-0.4,0-0.7-0.3-0.7-0.7v-1.4c-1.6-0.8-2.7-2.5-3.5-5.2c-0.7-2.6-1.8-4.5-3.2-5.8l-0.7-0.6c-0.7-0.6-1-1.3-1.1-2.2
			c-0.1-0.9,0.2-1.6,0.7-2.3c0.6-0.6,1.3-1,2.2-1c0.9,0,1.6,0.3,2.3,0.9l0.8,0.7V36.3c0-0.9,0.3-1.6,0.9-2.2
			c0.6-0.6,1.4-0.9,2.2-0.9c0.9,0,1.6,0.3,2.2,0.9c0.6,0.6,0.9,1.4,0.9,2.2v4.3c0.4-0.2,0.9-0.3,1.4-0.3c0,0,0,0,0,0
			c0.8,0,1.4,0.3,2,0.8c0.3,0.3,0.6,0.7,0.7,1.2c0.4-0.3,0.9-0.4,1.5-0.4c0,0,0,0,0,0c0.8,0,1.4,0.3,2,0.8c0.3,0.3,0.6,0.7,0.7,1.2
			c0.4-0.3,0.9-0.4,1.5-0.4c0,0,0,0,0,0c0.8,0,1.4,0.3,2,0.8c0.6,0.6,0.8,1.2,0.8,2v10.1c0.1,3.5-0.8,5.9-2.6,7.1v1.6
			C54,65.5,53.7,65.8,53.3,65.8z M10.5,47.5c-1.1,0-2.1-0.4-2.9-1.2c-0.8-0.8-1.2-1.8-1.2-2.9V23.6c0-1.1,0.4-2.1,1.2-2.9
			c0.8-0.8,1.8-1.2,2.9-1.2H61c1.1,0,2.1,0.4,2.9,1.2c0.8,0.8,1.2,1.8,1.2,2.9v19.7c0,1.1-0.4,2.1-1.2,2.9c-0.8,0.8-1.8,1.2-2.9,1.2
			h-1c-0.4,0-0.7-0.3-0.7-0.7S59.6,46,60,46h1c0,0,0,0,0,0c0.7,0,1.3-0.3,1.9-0.8c0.5-0.5,0.8-1.1,0.8-1.9V23.6
			c0-0.7-0.3-1.4-0.8-1.9C62.4,21.2,61.8,21,61,21H10.6c-0.7,0-1.4,0.3-1.9,0.8c-0.5,0.5-0.8,1.1-0.8,1.9v19.7
			c0,0.7,0.3,1.4,0.8,1.9c0.5,0.5,1.1,0.7,1.9,0.8h17.8c0.4,0,0.7,0.3,0.7,0.7s-0.3,0.7-0.7,0.7H10.5C10.6,47.5,10.5,47.5,10.5,47.5
			z M21.5,39h-5.9c-0.4,0-0.7-0.3-0.7-0.7V27.5c0-0.4,0.3-0.7,0.7-0.7h6c0.9,0,1.7,0.4,2.3,1c0.7,0.7,1,1.5,1,2.4c0,1-0.3,1.8-1,2.4
			c-0.1,0.1-0.2,0.2-0.3,0.3c0.1,0.1,0.2,0.2,0.3,0.3c0.7,0.7,1,1.5,1,2.4c0,1-0.3,1.8-1,2.4C23.2,38.7,22.4,39,21.5,39z M16.3,37.5
			h5.2c0.5,0,1-0.2,1.4-0.6c0.4-0.4,0.6-0.8,0.6-1.4c0-0.6-0.2-1-0.6-1.4c-0.4-0.4-0.8-0.6-1.3-0.6h-5.2V37.5z M16.3,32.2h5.2h0l0,0
			c0.5,0,1-0.2,1.3-0.6c0.4-0.4,0.6-0.8,0.6-1.4c0-0.6-0.2-1-0.6-1.4c-0.4-0.4-0.8-0.5-1.3-0.6l-5.2,0V32.2z M34.5,38.9
			c0,0-0.1,0-0.1,0c-1.2-0.2-2.3-0.7-3.2-1.6c-1.1-1.1-1.7-2.5-1.7-4.1v-5.7c0-0.4,0.3-0.7,0.7-0.7c0.4,0,0.7,0.3,0.7,0.7v5.7
			c0,1.2,0.4,2.2,1.3,3.1c0.7,0.7,1.4,1.1,2.3,1.2c0.4,0.1,0.7,0.4,0.6,0.8C35.2,38.7,34.9,38.9,34.5,38.9z M52,38.6
			c-0.4,0-0.7-0.3-0.7-0.7v-3.2l-4.8-7c-0.2-0.3-0.1-0.8,0.2-1c0.3-0.2,0.8-0.1,1,0.2l4.4,6.3l4.4-6.3c0.2-0.3,0.7-0.4,1-0.2
			c0.3,0.2,0.4,0.7,0.2,1l-4.8,7v3.2C52.8,38.2,52.4,38.6,52,38.6z M40.4,30.7c-0.4,0-0.7-0.3-0.7-0.7v-2.4c0-0.4,0.3-0.7,0.7-0.7
			c0.4,0,0.7,0.3,0.7,0.7V30C41.1,30.4,40.8,30.7,40.4,30.7z M44.9,16.8c-0.1,0-0.2,0-0.4-0.1c-0.4-0.2-0.5-0.7-0.3-1l4.3-7.5
			c0.2-0.4,0.7-0.5,1-0.3c0.4,0.2,0.5,0.7,0.3,1l-4.3,7.5C45.4,16.6,45.1,16.8,44.9,16.8z M26.7,16.8c-0.3,0-0.5-0.1-0.6-0.4
			l-4.3-7.5c-0.2-0.4-0.1-0.8,0.3-1c0.4-0.2,0.8-0.1,1,0.3l4.3,7.5c0.2,0.4,0.1,0.8-0.3,1C27,16.7,26.8,16.8,26.7,16.8z M35.8,16.8
			c-0.4,0-0.7-0.3-0.7-0.7V5c0-0.4,0.3-0.7,0.7-0.7s0.7,0.3,0.7,0.7v11C36.5,16.4,36.2,16.8,35.8,16.8z"/>
	</g>
</g>
</svg>
