<?xml version="1.0" encoding="utf-8"?>
<!-- Generator: Adobe Illustrator 24.2.1, SVG Export Plug-In . SVG Version: 6.00 Build 0)  -->
<svg version="1.1" id="Layer_1" xmlns="http://www.w3.org/2000/svg" xmlns:xlink="http://www.w3.org/1999/xlink" x="0px" y="0px"
	 viewBox="0 0 71.6 70.1" style="enable-background:new 0 0 71.6 70.1;" xml:space="preserve">
<style type="text/css">
	.st0{fill:#B2997D;}
</style>
<g>
	<g>
		<path class="st0" d="M51.5,63.1H20.1c-0.4,0-0.8-0.4-0.8-0.8v-3.9c0-0.4,0.3-0.8,0.8-0.8c7.6-0.5,11.4-2.8,11.6-7.3
			c-6.9,0-13.7,0-20.6,0H9.6c-0.7,0-1.3-0.3-1.8-0.8c-0.5-0.5-0.7-1.1-0.8-1.8V9.5c0-0.7,0.3-1.3,0.8-1.8C8.3,7.2,9,7,9.6,7H62
			c0.7,0,1.3,0.3,1.8,0.8c0.5,0.5,0.8,1.1,0.8,1.8v38.2c0,0.7-0.3,1.3-0.8,1.8c-0.5,0.5-1.1,0.8-1.8,0.8h-2.2c-6.7,0-13.4,0-20.2,0
			c0.4,4.4,4.3,6.8,11.9,7.3c0.4,0,0.8,0.4,0.8,0.8v3.9C52.3,62.8,51.9,63.1,51.5,63.1z M20.9,61.5h29.7v-2.4
			c-8.1-0.6-12.3-3.6-12.7-8.8h-4.8c-0.1,5.2-4.3,8.2-12.3,8.8V61.5z M32.4,48.7h6.4c7,0,14,0,21,0H62c0.3,0,0.5-0.1,0.7-0.3
			c0.2-0.2,0.3-0.4,0.3-0.7V9.5c0-0.3-0.1-0.5-0.3-0.7c-0.2-0.2-0.4-0.3-0.7-0.3H9.6C9.4,8.6,9.2,8.7,9,8.8C8.8,9,8.7,9.3,8.7,9.5
			v38.2c0,0.3,0.1,0.5,0.3,0.7c0.2,0.2,0.4,0.3,0.7,0.3h1.4C18.2,48.7,25.3,48.7,32.4,48.7C32.4,48.7,32.4,48.7,32.4,48.7z
			 M37.9,46.1h-4.2c-0.4,0-0.8-0.4-0.8-0.8c0-0.4,0.4-0.8,0.8-0.8h4.2c0.4,0,0.8,0.4,0.8,0.8C38.7,45.8,38.4,46.1,37.9,46.1z
			 M45.7,44.3c-0.1,0-0.2,0-0.3,0c-0.3-0.1-0.5-0.4-0.5-0.7l-1.7-17.4c0-0.3,0.1-0.6,0.4-0.8c0.3-0.2,0.6-0.1,0.9,0l14.2,10.2
			c0.3,0.2,0.4,0.5,0.3,0.8c-0.1,0.3-0.3,0.6-0.6,0.6l-4.1,1.1l1.6,2.8c0.2,0.4,0.1,0.9-0.3,1.1l-3.6,2.1c-0.2,0.1-0.4,0.1-0.6,0.1
			c-0.2-0.1-0.4-0.2-0.5-0.4L49.2,41l-3,3C46.1,44.2,45.9,44.3,45.7,44.3z M49.4,38.9c0,0,0.1,0,0.1,0c0.2,0,0.5,0.2,0.6,0.4l1.8,3
			l2.2-1.3l-1.8-3c-0.1-0.2-0.1-0.5,0-0.7c0.1-0.2,0.3-0.4,0.5-0.5l3.4-0.9l-11.3-8.2l1.4,13.9l2.5-2.5C49,39,49.2,38.9,49.4,38.9z
			 M41,41.9H13.1c-0.4,0-0.8-0.4-0.8-0.8c0-0.4,0.4-0.8,0.8-0.8H41c0.4,0,0.8,0.4,0.8,0.8C41.9,41.6,41.5,41.9,41,41.9z M40.5,37
			H27.6c-2.9-0.1-5.4-1.1-7.4-3.2c-2.1-2.1-3.2-4.7-3.2-7.7c0-3,1.1-5.6,3.2-7.7c2.1-2.1,4.6-3.1,7.5-3.2h16.4
			c2.9,0.1,5.4,1.1,7.4,3.2c0.2,0.2,0.5,0.5,0.7,0.7c0.6,0.7,1.1,1.4,1.4,2.2c0.7,1.5,1.1,3.1,1.1,4.8c0,0.6,0,1.1-0.1,1.7
			c-0.1,0.4-0.5,0.7-0.9,0.7c-0.4-0.1-0.7-0.5-0.7-0.9c0.1-0.5,0.1-1,0.1-1.5c0-1.5-0.3-2.9-0.9-4.1c-0.3-0.6-0.7-1.3-1.2-1.8
			c-0.2-0.2-0.4-0.4-0.6-0.6c-1.8-1.8-3.8-2.7-6.3-2.7H27.7c-2.5,0-4.5,0.9-6.3,2.7c-1.8,1.8-2.7,4-2.7,6.6c0,2.6,0.9,4.7,2.7,6.6
			c1.8,1.8,3.8,2.7,6.3,2.7h12.8c0.4,0,0.8,0.4,0.8,0.8C41.3,36.7,40.9,37,40.5,37z M36.1,33.4C36.1,33.4,36.1,33.4,36.1,33.4
			l-8.1,0c-2,0-3.7-0.7-5.1-2.1c-1.4-1.4-2.1-3.1-2.1-5.1c0-2,0.7-3.7,2.1-5.1c1.4-1.4,3-2.1,4.9-2.1h8.3c0.4,0,0.8,0.4,0.8,0.8
			s-0.4,0.8-0.8,0.8h-8.3c-1.5,0-2.7,0.6-3.8,1.7c-1.1,1.1-1.7,2.4-1.7,4c0,1.6,0.5,2.9,1.7,4c1.1,1.1,2.4,1.7,4,1.7l8.1,0
			c0.4,0,0.8,0.4,0.8,0.8S36.5,33.4,36.1,33.4z M40.1,32.3c-0.2,0-0.3,0-0.5-0.1c-0.3-0.2-0.7-0.5-1-0.8c-1.4-1.4-2.1-3.1-2.1-5.1
			c0-2,0.7-3.7,2.1-5.1c1.4-1.4,3.1-2.1,5.1-2.1c2,0,3.7,0.7,5.1,2.1c1.3,1.3,2,2.8,2.1,4.6c0,0.4-0.3,0.8-0.7,0.9
			c-0.4,0-0.8-0.3-0.9-0.7c-0.1-1.4-0.6-2.5-1.6-3.6c-1.1-1.1-2.4-1.7-4-1.7c-1.6,0-2.9,0.5-4,1.7c-1.1,1.1-1.7,2.4-1.7,4
			c0,1.6,0.5,2.9,1.7,4c0.2,0.2,0.5,0.5,0.8,0.7c0.4,0.3,0.4,0.8,0.2,1.1C40.6,32.2,40.4,32.3,40.1,32.3z"/>
	</g>
</g>
</svg>
