<?xml version="1.0" encoding="utf-8"?>
<!-- Generator: Adobe Illustrator 24.2.1, SVG Export Plug-In . SVG Version: 6.00 Build 0)  -->
<svg version="1.1" id="Layer_1" xmlns="http://www.w3.org/2000/svg" xmlns:xlink="http://www.w3.org/1999/xlink" x="0px" y="0px"
	 viewBox="0 0 71.6 70.1" style="enable-background:new 0 0 71.6 70.1;" xml:space="preserve">
<style type="text/css">
	.st0{fill:#B2997D;}
</style>
<g>
	<g>
		<path class="st0" d="M61.5,59.2H10.1c-1.5,0-2.7-0.5-3.7-1.6c-1-1-1.5-2.3-1.6-3.7v-0.8c0-0.6,0.4-1,1-1H28c0.4,0,0.8,0.3,1,0.7
			l0.4,1.3c0.2,0.5-0.1,1.1-0.7,1.3c-0.5,0.2-1.1-0.1-1.3-0.7l-0.2-0.6H6.8c0,0.8,0.4,1.5,1,2.1c0.7,0.7,1.4,1,2.3,1h51.4
			c0.9,0,1.7-0.3,2.3-1c0.6-0.6,0.9-1.3,1-2.1H44.2l-0.2,0.6c-0.2,0.5-0.7,0.8-1.3,0.7c-0.5-0.2-0.8-0.7-0.7-1.3l0.4-1.3
			c0.1-0.4,0.5-0.7,1-0.7h22.3c0.6,0,1,0.4,1,1v0.8c0,1.5-0.5,2.7-1.6,3.7C64.2,58.7,63,59.2,61.5,59.2z M39.6,54.1H32
			c-0.6,0-1-0.4-1-1s0.4-1,1-1h7.7c0.6,0,1,0.4,1,1S40.2,54.1,39.6,54.1z M59.5,50.6c-0.6,0-1-0.4-1-1V21.8c0-0.4-0.1-0.8-0.5-1.1
			c-0.3-0.3-0.6-0.4-1.1-0.4h0h-6.4c-0.6,0-1-0.4-1-1s0.4-1,1-1H57c0,0,0,0,0,0c1,0,1.8,0.3,2.5,1c0.7,0.7,1,1.5,1,2.5v27.8
			C60.5,50.1,60.1,50.6,59.5,50.6z M12.1,50.6c-0.6,0-1-0.4-1-1V21.8c0-1,0.3-1.8,1-2.5c0.7-0.7,1.5-1,2.5-1c0,0,0,0,0,0H21
			c0.6,0,1,0.4,1,1s-0.4,1-1,1h-6.4c-0.5,0-0.8,0.1-1.1,0.4c-0.3,0.3-0.4,0.7-0.4,1.1v27.8C13.1,50.1,12.6,50.6,12.1,50.6z
			 M56.1,48.4H15.5c-0.6,0-1-0.4-1-1s0.4-1,1-1h40.5c0.6,0,1,0.4,1,1S56.6,48.4,56.1,48.4z M21.9,44.6c0,0-0.1,0-0.1,0
			c-0.5-0.1-0.9-0.6-0.9-1.1l2.9-24.3c0.1-0.5,0.5-0.9,1-0.9h4.6v-1c0-1.8,0.6-3.3,1.9-4.5c1.2-1.2,2.8-1.9,4.5-1.9s3.3,0.6,4.5,1.9
			c1.2,1.2,1.9,2.8,1.9,4.5v1h4.6c0.5,0,0.9,0.4,1,0.9l2.9,24.3c0.1,0.5-0.3,1-0.9,1.1c-0.6,0.1-1-0.3-1.1-0.9l-2.8-23.4h-3.8v1.9
			c0,0.6-0.4,1-1,1s-1-0.4-1-1v-1.9h-8.8v1.9c0,0.6-0.4,1-1,1s-1-0.4-1-1v-1.9h-3.7l-2.8,23.4C22.8,44.2,22.4,44.6,21.9,44.6z
			 M31.4,18.3h8.8v-1c0-1.2-0.4-2.2-1.3-3.1c-0.9-0.9-1.9-1.3-3.1-1.3c-1.2,0-2.2,0.4-3.1,1.3c-0.9,0.9-1.3,1.9-1.3,3.1V18.3z
			 M33.2,41.8c-0.1,0-0.2,0-0.3-0.1c-0.4-0.1-0.6-0.5-0.7-0.8l-1.3-13.4c0-0.4,0.2-0.8,0.5-1c0.3-0.2,0.8-0.2,1.1,0.1l10.9,7.8
			c0.3,0.2,0.5,0.6,0.4,1c-0.1,0.4-0.4,0.7-0.7,0.8l-2.6,0.7l1,1.7c0.3,0.5,0.1,1.1-0.4,1.4l-2.8,1.6c-0.2,0.1-0.5,0.2-0.8,0.1
			c-0.3-0.1-0.5-0.2-0.6-0.5l-1-1.7l-1.9,1.9C33.7,41.7,33.5,41.8,33.2,41.8z M36.1,36.9c0,0,0.1,0,0.1,0c0.3,0,0.6,0.2,0.7,0.5
			l1.2,2l1.1-0.6l-1.1-2c-0.2-0.3-0.2-0.6-0.1-0.9c0.1-0.3,0.4-0.5,0.7-0.6l1.9-0.5l-7.4-5.3l0.9,9l1.4-1.4
			C35.6,37,35.8,36.9,36.1,36.9z"/>
	</g>
</g>
</svg>
